<svg
    width="49"
    height="48"
    viewBox="0 0 49 48"
    fill="none"
    xmlns="http://www.w3.org/2000/svg"
  >
    <mask
      id="mask0_3186_128152"
      style="mask-type:alpha"
      maskUnits="userSpaceOnUse"
      x="0"
      y="0"
      width="49"
      height="48"
    >
      <rect x="0.738281" width="48" height="48" fill="#D9D9D9" />
    </mask>
    <g mask="url(#mask0_3186_128152)">
      <path
        d="M24.7383 42.15C24.3324 42.15 23.9225 42.0777 23.5065 41.9291C23.1025 41.7849 22.7434 41.5695 22.4259 41.2812C20.2707 39.2917 18.3671 37.3547 16.7142 35.4703C15.0618 33.5866 13.687 31.7663 12.5871 30.0096C11.4861 28.2513 10.6536 26.5677 10.0847 24.9583C9.51719 23.3531 9.23828 21.8346 9.23828 20.4C9.23828 15.5177 10.8033 11.6756 13.9023 8.81755C17.03 5.93288 20.6352 4.5 24.7383 4.5C28.8414 4.5 32.4465 5.93288 35.5743 8.81755C38.6733 11.6756 40.2383 15.5177 40.2383 20.4C40.2383 21.8346 39.9594 23.3531 39.3919 24.9583C38.8229 26.5677 37.9905 28.2513 36.8895 30.0096C35.7895 31.7663 34.4148 33.5866 32.7624 35.4703C31.1094 37.3547 29.2059 39.2916 27.0508 41.2811C26.7332 41.5695 26.3741 41.7848 25.9701 41.9291C25.5541 42.0777 25.1442 42.15 24.7383 42.15Z"
        fill="#FAD2CF"
        stroke="#B64142" 
      />
      <path
        d="M20.1286 16.172V22H18.7686V19.536H16.4006V22H15.0406V16.172H16.4006V18.608H18.7686V16.172H20.1286ZM22.6193 22H21.2593V16.172H22.6193V22ZM26.5437 18.98H28.6157V21.44C28.317 21.6587 27.9984 21.8173 27.6597 21.916C27.3237 22.0147 26.9717 22.064 26.6037 22.064C26.1237 22.064 25.6864 21.9893 25.2917 21.84C24.8997 21.688 24.5637 21.48 24.2837 21.216C24.0037 20.9493 23.7877 20.6347 23.6357 20.272C23.4837 19.9067 23.4077 19.5107 23.4077 19.084C23.4077 18.6493 23.4797 18.2507 23.6237 17.888C23.7677 17.5227 23.973 17.208 24.2397 16.944C24.509 16.68 24.833 16.4747 25.2117 16.328C25.593 16.1813 26.0184 16.108 26.4877 16.108C26.7304 16.108 26.9584 16.128 27.1717 16.168C27.385 16.208 27.581 16.2627 27.7597 16.332C27.941 16.4013 28.1064 16.484 28.2557 16.58C28.405 16.676 28.5384 16.78 28.6557 16.892L28.2637 17.488C28.2024 17.5813 28.1224 17.6387 28.0237 17.66C27.9277 17.6813 27.8237 17.6573 27.7117 17.588C27.605 17.524 27.5037 17.4693 27.4077 17.424C27.3144 17.376 27.2184 17.3373 27.1197 17.308C27.021 17.2787 26.917 17.2573 26.8077 17.244C26.6984 17.2307 26.5757 17.224 26.4397 17.224C26.1864 17.224 25.9584 17.2693 25.7557 17.36C25.553 17.448 25.3797 17.5733 25.2357 17.736C25.0944 17.8987 24.985 18.0947 24.9077 18.324C24.8304 18.5507 24.7917 18.804 24.7917 19.084C24.7917 19.3933 24.8344 19.668 24.9197 19.908C25.005 20.148 25.125 20.3507 25.2797 20.516C25.437 20.6813 25.6237 20.808 25.8397 20.896C26.0584 20.9813 26.2997 21.024 26.5637 21.024C26.7264 21.024 26.873 21.008 27.0037 20.976C27.137 20.944 27.2664 20.9013 27.3917 20.848V19.964H26.8157C26.7304 19.964 26.6637 19.9413 26.6157 19.896C26.5677 19.8507 26.5437 19.7933 26.5437 19.724V18.98ZM34.6129 16.172V22H33.2529V19.536H30.8849V22H29.5249V16.172H30.8849V18.608H33.2529V16.172H34.6129Z"
        fill="#B64142"
      />
    </g>
  </svg>