<svg width="49" height="48" viewBox="0 0 49 48" fill="none" xmlns="http://www.w3.org/2000/svg">
<mask id="mask0_3186_128144" style="mask-type:alpha" maskUnits="userSpaceOnUse" x="0" y="0" width="49" height="48">
<rect x="0.738281" width="48" height="48" fill="#D9D9D9"/>
</mask>
<g mask="url(#mask0_3186_128144)">
<path d="M24.7383 42.15C24.3324 42.15 23.9225 42.0777 23.5065 41.9291C23.1025 41.7849 22.7434 41.5695 22.4259 41.2812C20.2707 39.2917 18.3671 37.3547 16.7142 35.4703C15.0618 33.5866 13.687 31.7663 12.5871 30.0096C11.4861 28.2513 10.6536 26.5677 10.0847 24.9583C9.51719 23.3531 9.23828 21.8346 9.23828 20.4C9.23828 15.5177 10.8033 11.6756 13.9023 8.81755C17.03 5.93288 20.6352 4.5 24.7383 4.5C28.8414 4.5 32.4465 5.93288 35.5743 8.81755C38.6733 11.6756 40.2383 15.5177 40.2383 20.4C40.2383 21.8346 39.9594 23.3531 39.3919 24.9583C38.8229 26.5677 37.9905 28.2513 36.8895 30.0096C35.7895 31.7663 34.4148 33.5866 32.7624 35.4703C31.1094 37.3547 29.2059 39.2916 27.0508 41.2811C26.7332 41.5695 26.3741 41.7848 25.9701 41.9291C25.5541 42.0777 25.1442 42.15 24.7383 42.15Z" fill="#CAE6D2" stroke="#0D652D"/>
<path d="M19.5526 20.92V22H16.0406V16.172H17.3926V20.92H19.5526ZM25.8231 19.084C25.8231 19.5053 25.7497 19.8973 25.6031 20.26C25.4591 20.6227 25.2551 20.9387 24.9911 21.208C24.7271 21.4747 24.4084 21.684 24.0351 21.836C23.6644 21.988 23.2524 22.064 22.7991 22.064C22.3457 22.064 21.9324 21.988 21.5591 21.836C21.1857 21.684 20.8657 21.4747 20.5991 21.208C20.3351 20.9387 20.1297 20.6227 19.9831 20.26C19.8391 19.8973 19.7671 19.5053 19.7671 19.084C19.7671 18.6627 19.8391 18.2707 19.9831 17.908C20.1297 17.5453 20.3351 17.2307 20.5991 16.964C20.8657 16.6973 21.1857 16.488 21.5591 16.336C21.9324 16.184 22.3457 16.108 22.7991 16.108C23.2524 16.108 23.6644 16.1853 24.0351 16.34C24.4084 16.492 24.7271 16.7013 24.9911 16.968C25.2551 17.2347 25.4591 17.5493 25.6031 17.912C25.7497 18.2747 25.8231 18.6653 25.8231 19.084ZM24.4391 19.084C24.4391 18.796 24.4017 18.5373 24.3271 18.308C24.2524 18.076 24.1444 17.88 24.0031 17.72C23.8644 17.56 23.6937 17.4373 23.4911 17.352C23.2884 17.2667 23.0577 17.224 22.7991 17.224C22.5377 17.224 22.3044 17.2667 22.0991 17.352C21.8964 17.4373 21.7244 17.56 21.5831 17.72C21.4444 17.88 21.3377 18.076 21.2631 18.308C21.1884 18.5373 21.1511 18.796 21.1511 19.084C21.1511 19.3747 21.1884 19.636 21.2631 19.868C21.3377 20.0973 21.4444 20.292 21.5831 20.452C21.7244 20.612 21.8964 20.7347 22.0991 20.82C22.3044 20.9027 22.5377 20.944 22.7991 20.944C23.0577 20.944 23.2884 20.9027 23.4911 20.82C23.6937 20.7347 23.8644 20.612 24.0031 20.452C24.1444 20.292 24.2524 20.0973 24.3271 19.868C24.4017 19.636 24.4391 19.3747 24.4391 19.084ZM34.4103 16.172L32.6103 22H31.3863L30.2903 18.388C30.2689 18.332 30.2489 18.2707 30.2303 18.204C30.2116 18.1347 30.1929 18.0627 30.1743 17.988C30.1556 18.0627 30.1369 18.1347 30.1183 18.204C30.0996 18.2707 30.0796 18.332 30.0583 18.388L28.9463 22H27.7223L25.9223 16.172H27.0583C27.1756 16.172 27.2729 16.1987 27.3503 16.252C27.4303 16.3053 27.4823 16.376 27.5063 16.464L28.3063 19.504C28.3303 19.6 28.3543 19.7053 28.3783 19.82C28.4023 19.932 28.4263 20.0493 28.4503 20.172C28.4983 19.9213 28.5569 19.6987 28.6263 19.504L29.5703 16.464C29.5943 16.3893 29.6449 16.3227 29.7223 16.264C29.8023 16.2027 29.8983 16.172 30.0103 16.172H30.4103C30.5276 16.172 30.6223 16.2 30.6943 16.256C30.7663 16.3093 30.8209 16.3787 30.8583 16.464L31.7943 19.504C31.8636 19.6907 31.9223 19.9027 31.9703 20.14C31.9916 20.02 32.0129 19.908 32.0343 19.804C32.0583 19.6973 32.0823 19.5973 32.1063 19.504L32.9063 16.464C32.9276 16.3867 32.9783 16.3187 33.0583 16.26C33.1383 16.2013 33.2343 16.172 33.3463 16.172H34.4103Z" fill="#0D652D"/>
</g>
</svg>
 