<svg
    width="49"
    height="48"
    viewBox="0 0 49 48"
    fill="none"
    xmlns="http://www.w3.org/2000/svg"
  >
    <mask
      id="mask0_3186_128156"
      style="mask-type:alpha"
      maskUnits="userSpaceOnUse"
      x="0"
      y="0"
      width="49"
      height="48"
    >
      <rect x="0.738281" width="48" height="48" fill="#D9D9D9" />
    </mask>
    <g mask="url(#mask0_3186_128156)">
      <path
        d="M24.7383 42.15C24.3324 42.15 23.9225 42.0777 23.5065 41.9291C23.1025 41.7849 22.7434 41.5695 22.4259 41.2812C20.2707 39.2917 18.3671 37.3547 16.7142 35.4703C15.0618 33.5866 13.687 31.7663 12.5871 30.0096C11.4861 28.2513 10.6536 26.5677 10.0847 24.9583C9.51719 23.3531 9.23828 21.8346 9.23828 20.4C9.23828 15.5177 10.8033 11.6756 13.9023 8.81755C17.03 5.93288 20.6352 4.5 24.7383 4.5C28.8414 4.5 32.4465 5.93288 35.5743 8.81755C38.6733 11.6756 40.2383 15.5177 40.2383 20.4C40.2383 21.8346 39.9594 23.3531 39.3919 24.9583C38.8229 26.5677 37.9905 28.2513 36.8895 30.0096C35.7895 31.7663 34.4148 33.5866 32.7624 35.4703C31.1094 37.3547 29.2059 39.2916 27.0508 41.2811C26.7332 41.5695 26.3741 41.7848 25.9701 41.9291C25.5541 42.0777 25.1442 42.15 24.7383 42.15Z"
        fill="#E6F0FE"
        stroke="#004BB1" 
      />
      <path
        d="M20.1206 19.772L19.5806 18.176C19.5406 18.0747 19.4979 17.956 19.4526 17.82C19.4072 17.6813 19.3619 17.532 19.3166 17.372C19.2766 17.5347 19.2339 17.6853 19.1886 17.824C19.1432 17.9627 19.1006 18.0827 19.0606 18.184L18.5246 19.772H20.1206ZM22.2686 22H21.2206C21.1032 22 21.0086 21.9733 20.9366 21.92C20.8646 21.864 20.8099 21.7933 20.7726 21.708L20.4286 20.692H18.2126L17.8686 21.708C17.8392 21.7827 17.7859 21.8507 17.7086 21.912C17.6339 21.9707 17.5406 22 17.4286 22H16.3726L18.6286 16.172H20.0126L22.2686 22ZM27.4717 16.172L25.1357 22H23.9117L21.5757 16.172H22.6637C22.781 16.172 22.8757 16.2 22.9477 16.256C23.0197 16.3093 23.0744 16.3787 23.1117 16.464L24.2397 19.584C24.293 19.72 24.345 19.8693 24.3957 20.032C24.4464 20.192 24.4944 20.36 24.5397 20.536C24.577 20.36 24.6184 20.192 24.6637 20.032C24.7117 19.8693 24.7624 19.72 24.8157 19.584L25.9357 16.464C25.965 16.3893 26.017 16.3227 26.0917 16.264C26.169 16.2027 26.2637 16.172 26.3757 16.172H27.4717ZM30.5203 18.98H32.5923V21.44C32.2936 21.6587 31.9749 21.8173 31.6363 21.916C31.3003 22.0147 30.9483 22.064 30.5803 22.064C30.1003 22.064 29.6629 21.9893 29.2682 21.84C28.8763 21.688 28.5403 21.48 28.2603 21.216C27.9803 20.9493 27.7643 20.6347 27.6123 20.272C27.4603 19.9067 27.3843 19.5107 27.3843 19.084C27.3843 18.6493 27.4563 18.2507 27.6003 17.888C27.7443 17.5227 27.9496 17.208 28.2163 16.944C28.4856 16.68 28.8096 16.4747 29.1883 16.328C29.5696 16.1813 29.9949 16.108 30.4643 16.108C30.7069 16.108 30.9349 16.128 31.1483 16.168C31.3616 16.208 31.5576 16.2627 31.7363 16.332C31.9176 16.4013 32.0829 16.484 32.2323 16.58C32.3816 16.676 32.5149 16.78 32.6323 16.892L32.2403 17.488C32.1789 17.5813 32.0989 17.6387 32.0003 17.66C31.9043 17.6813 31.8003 17.6573 31.6883 17.588C31.5816 17.524 31.4803 17.4693 31.3843 17.424C31.2909 17.376 31.1949 17.3373 31.0963 17.308C30.9976 17.2787 30.8936 17.2573 30.7843 17.244C30.6749 17.2307 30.5523 17.224 30.4163 17.224C30.1629 17.224 29.9349 17.2693 29.7323 17.36C29.5296 17.448 29.3563 17.5733 29.2122 17.736C29.0709 17.8987 28.9616 18.0947 28.8843 18.324C28.8069 18.5507 28.7683 18.804 28.7683 19.084C28.7683 19.3933 28.8109 19.668 28.8963 19.908C28.9816 20.148 29.1016 20.3507 29.2563 20.516C29.4136 20.6813 29.6003 20.808 29.8163 20.896C30.0349 20.9813 30.2763 21.024 30.5403 21.024C30.7029 21.024 30.8496 21.008 30.9803 20.976C31.1136 20.944 31.2429 20.9013 31.3683 20.848V19.964H30.7923C30.7069 19.964 30.6403 19.9413 30.5923 19.896C30.5443 19.8507 30.5203 19.7933 30.5203 19.724V18.98Z"
        fill="#004BB1"
      />
    </g>
  </svg>