  <svg
    xmlns="http://www.w3.org/2000/svg"
    width="24"
    height="24"
    viewBox="0 0 24 24"
    fill="none"
  >
    <path
      d="M15.0633 4.70828C15.0633 5.51367 14.4105 6.16656 13.6051 6.16656C12.7997 6.16656 12.1468 5.51367 12.1468 4.70828C12.1468 3.90289 12.7997 3.25 13.6051 3.25C14.4105 3.25 15.0633 3.90289 15.0633 4.70828Z"
      fill="#006AF9"
    />
    <path
      d="M17.9811 10.2517C19.0549 10.2517 19.9254 9.3812 19.9254 8.30735C19.9254 7.23351 19.0549 6.36298 17.9811 6.36298C16.9072 6.36298 16.0367 7.23351 16.0367 8.30735C16.0367 9.3812 16.9072 10.2517 17.9811 10.2517Z"
      fill="#006AF9"
    />
    <path
      d="M4.07801 16.2769C4.99078 16.2769 5.73073 15.537 5.73073 14.6242C5.73073 13.7114 4.99078 12.9715 4.07801 12.9715C3.16524 12.9715 2.42529 13.7114 2.42529 14.6242C2.42529 15.537 3.16524 16.2769 4.07801 16.2769Z"
      fill="#006AF9"
    />
    <path
      d="M19.5366 16.667C19.5366 17.6335 18.7531 18.417 17.7866 18.417C16.8202 18.417 16.0367 17.6335 16.0367 16.667C16.0367 15.7006 16.8202 14.9171 17.7866 14.9171C18.7531 14.9171 19.5366 15.7006 19.5366 16.667Z"
      fill="#006AF9"
    />
    <path
      d="M12.1469 22.6931C13.2207 22.6931 14.0912 21.8226 14.0912 20.7488C14.0912 19.6749 13.2207 18.8044 12.1469 18.8044C11.073 18.8044 10.2025 19.6749 10.2025 20.7488C10.2025 21.8226 11.073 22.6931 12.1469 22.6931Z"
      fill="#006AF9"
    />
  </svg>